<svg xmlns="http://www.w3.org/2000/svg" width="43.667" height="33.968" viewBox="0 0 43.667 33.968">
  <g id="Group_17558" data-name="Group 17558" transform="translate(-15.155 -15.156)">
    <path id="Path_21610" data-name="Path 21610" d="M349.468,342.675v-2.249A1.334,1.334,0,0,0,348.059,339a1.388,1.388,0,0,0-1.259.637,1.316,1.316,0,0,0-1.184-.637,1.185,1.185,0,0,0-1.049.532v-.442h-.78v3.583h.787v-1.986a.838.838,0,0,1,.877-.952c.517,0,.78.337.78.944v1.994h.787v-1.986a.845.845,0,0,1,.877-.952c.532,0,.787.337.787.944v1.994Zm11.649-3.583h-1.274v-1.087h-.787v1.087h-.727v.712h.727v1.634c0,.832.322,1.327,1.244,1.327a1.832,1.832,0,0,0,.974-.277l-.225-.667a1.44,1.44,0,0,1-.69.2c-.39,0-.517-.24-.517-.6V339.8h1.274Zm6.649-.09a1.057,1.057,0,0,0-.944.525v-.435h-.772v3.583h.78v-2.009c0-.592.255-.922.765-.922a1.274,1.274,0,0,1,.487.09l.24-.735A1.669,1.669,0,0,0,367.766,339Zm-10.052.375a2.68,2.68,0,0,0-1.462-.375c-.907,0-1.492.435-1.492,1.147,0,.585.435.945,1.237,1.057l.367.052c.427.06.63.172.63.375,0,.277-.285.435-.817.435a1.908,1.908,0,0,1-1.192-.375l-.367.607a2.586,2.586,0,0,0,1.552.465c1.034,0,1.634-.487,1.634-1.169,0-.63-.472-.959-1.252-1.072l-.367-.052c-.337-.045-.607-.112-.607-.352,0-.262.255-.42.682-.42a2.31,2.31,0,0,1,1.117.307ZM378.6,339a1.057,1.057,0,0,0-.944.525v-.435h-.772v3.583h.78v-2.009c0-.592.255-.922.765-.922a1.274,1.274,0,0,1,.487.09l.24-.735A1.669,1.669,0,0,0,378.6,339Zm-10.044,1.882a1.81,1.81,0,0,0,1.911,1.882,1.877,1.877,0,0,0,1.289-.427l-.375-.63a1.576,1.576,0,0,1-.937.322,1.149,1.149,0,0,1,0-2.294,1.575,1.575,0,0,1,.937.322l.375-.63a1.877,1.877,0,0,0-1.289-.427,1.81,1.81,0,0,0-1.912,1.881Zm7.3,0v-1.792h-.78v.435a1.36,1.36,0,0,0-1.132-.525,1.884,1.884,0,0,0,0,3.763,1.359,1.359,0,0,0,1.132-.525v.435h.779Zm-2.9,0a1.075,1.075,0,1,1,.292.811A1.085,1.085,0,0,1,372.953,340.884ZM363.545,339a1.883,1.883,0,0,0,.053,3.763,2.178,2.178,0,0,0,1.469-.5l-.382-.577a1.707,1.707,0,0,1-1.042.375,1,1,0,0,1-1.072-.877h2.661c.008-.1.015-.195.015-.3a1.718,1.718,0,0,0-1.7-1.882Zm-.015.7a.89.89,0,0,1,.907.87h-1.859A.923.923,0,0,1,363.53,339.7Zm19.557,1.184v-3.231h-.78v1.874a1.359,1.359,0,0,0-1.132-.525,1.884,1.884,0,0,0,0,3.763,1.359,1.359,0,0,0,1.132-.525v.435h.78Zm1.3,1.272a.361.361,0,0,1,.141.028.368.368,0,0,1,.115.076.359.359,0,0,1,.078.113.35.35,0,0,1,0,.276.362.362,0,0,1-.078.113.374.374,0,0,1-.115.077.351.351,0,0,1-.141.028.363.363,0,0,1-.336-.218.351.351,0,0,1,0-.276.362.362,0,0,1,.077-.113.357.357,0,0,1,.116-.076.369.369,0,0,1,.143-.028Zm0,.634a.267.267,0,0,0,.107-.022.283.283,0,0,0,.087-.059.278.278,0,0,0-.087-.452.269.269,0,0,0-.107-.021.28.28,0,0,0-.109.021.274.274,0,0,0-.089.059.278.278,0,0,0,.2.474Zm.021-.444a.15.15,0,0,1,.1.028.1.1,0,0,1,.034.077.09.09,0,0,1-.027.068.13.13,0,0,1-.078.033l.108.125h-.085l-.1-.124h-.032v.124h-.071v-.331Zm-.082.062v.088h.081a.08.08,0,0,0,.045-.011.037.037,0,0,0,.017-.034.037.037,0,0,0-.017-.033.08.08,0,0,0-.045-.011Zm-4.139-1.524a1.075,1.075,0,1,1,.292.811A1.085,1.085,0,0,1,380.186,340.884Zm-26.326,0v-1.792h-.78v.435a1.36,1.36,0,0,0-1.132-.525,1.884,1.884,0,0,0,0,3.763,1.359,1.359,0,0,0,1.132-.525v.435h.78Zm-2.9,0a1.075,1.075,0,1,1,.292.812,1.085,1.085,0,0,1-.292-.812Z" transform="translate(-326.37 -293.745)" fill="#c3c3c3"/>
    <g id="Group_17558-2" data-name="Group 17558" transform="translate(15.155 15.156)">
      <rect id="Rectangle_3492" data-name="Rectangle 3492" width="11.808" height="21.219" transform="translate(15.93 2.885)" fill="#c3c3c3"/>
      <path id="Path_21611" data-name="Path 21611" d="M354.433,274.444a13.471,13.471,0,0,1,5.154-10.61,13.495,13.495,0,1,0,0,21.219A13.471,13.471,0,0,1,354.433,274.444Z" transform="translate(-337.753 -260.949)" fill="#dbdbdb"/>
      <path id="Path_21612" data-name="Path 21612" d="M417.833,274.444A13.494,13.494,0,0,1,396,285.053a13.5,13.5,0,0,0,0-21.219,13.494,13.494,0,0,1,21.833,10.609Z" transform="translate(-374.166 -260.949)" fill="#c3c3c3"/>
      <path id="Path_21613" data-name="Path 21613" d="M450.358,318.383v-.434h.175v-.089h-.446v.089h.175v.434Zm.866,0v-.524h-.137l-.157.36-.157-.36h-.137v.524h.1v-.4l.147.341h.1l.148-.342v.4Z" transform="translate(-407.979 -296.527)" fill="#c3c3c3"/>
    </g>
  </g>
</svg>
