<svg xmlns="http://www.w3.org/2000/svg" width="63.055" height="19.117" viewBox="0 0 63.055 19.117">
  <g id="visa" transform="translate(0 -175.6)">
    <path id="Path_21595" data-name="Path 21595" d="M184.8,198.416,188,180.4h5l-3.1,18.016Z" transform="translate(-161.68 -4.199)" fill="#c2c2c2"/>
    <path id="Path_21596" data-name="Path 21596" d="M184.8,198.416l4.1-18.016h4.1l-3.1,18.016Z" transform="translate(-161.68 -4.199)" fill="#c2c2c2"/>
    <path id="Path_21597" data-name="Path 21597" d="M263.313,176.4a12.7,12.7,0,0,0-4.6-.8c-5,0-8.608,2.5-8.608,6.105,0,2.7,2.5,4.1,4.5,5s2.6,1.5,2.6,2.3c0,1.2-1.6,1.8-3,1.8a10.879,10.879,0,0,1-4.8-1l-.7-.3-.7,4.1a16.229,16.229,0,0,0,5.705,1c5.3,0,8.808-2.5,8.808-6.306,0-2.1-1.3-3.7-4.3-5-1.8-.9-2.9-1.4-2.9-2.3,0-.8.9-1.6,2.9-1.6a9.18,9.18,0,0,1,3.8.7l.5.2.8-3.9Z" transform="translate(-216.973)" fill="#c2c2c2"/>
    <path id="Path_21598" data-name="Path 21598" d="M263.313,176.4a12.7,12.7,0,0,0-4.6-.8c-5,0-7.707,2.5-7.707,6.105,0,2.7,1.6,4.1,3.6,5s2.6,1.5,2.6,2.3c0,1.2-1.6,1.8-3,1.8a10.879,10.879,0,0,1-4.8-1l-.7-.3-.7,4.1a16.229,16.229,0,0,0,5.705,1c5.3,0,8.808-2.5,8.808-6.306,0-2.1-1.3-3.7-4.3-5-1.8-.9-2.9-1.4-2.9-2.3,0-.8.9-1.6,2.9-1.6a9.18,9.18,0,0,1,3.8.7l.5.2.8-3.9Z" transform="translate(-216.973)" fill="#c2c2c2"/>
    <path id="Path_21599" data-name="Path 21599" d="M368.509,180.4c-1.2,0-2.1.1-2.6,1.3L358.4,198.416h5.4l1-3h6.406l.6,3h4.8l-4.2-18.016Zm-2.3,12.01c.3-.9,2-5.3,2-5.3s.4-1.1.7-1.8l.3,1.7s1,4.5,1.2,5.5h-4.2Z" transform="translate(-313.561 -4.199)" fill="#c2c2c2"/>
    <path id="Path_21600" data-name="Path 21600" d="M369.71,180.4c-1.2,0-2.1.1-2.6,1.3L358.4,198.416h5.4l1-3h6.406l.6,3h4.8l-4.2-18.016Zm-3.5,12.01c.4-1,2-5.3,2-5.3s.4-1.1.7-1.8l.3,1.7s1,4.5,1.2,5.5h-4.2Z" transform="translate(-313.561 -4.199)" fill="#c2c2c2"/>
    <path id="Path_21601" data-name="Path 21601" d="M58.707,193.711l-.5-2.6A14.509,14.509,0,0,0,51.2,183.2l4.5,16.014h5.4L69.216,181.2h-5.4Z" transform="translate(-44.794 -4.899)" fill="#c2c2c2"/>
    <path id="Path_21602" data-name="Path 21602" d="M58.707,193.711l-.5-2.6A14.509,14.509,0,0,0,51.2,183.2l4.5,16.014h5.4L69.216,181.2h-4.4Z" transform="translate(-44.794 -4.899)" fill="#c2c2c2"/>
    <path id="Path_21603" data-name="Path 21603" d="M0,180.4l.9.2c6.406,1.5,10.809,5.3,12.511,9.809l-1.8-8.507c-.3-1.2-1.2-1.5-2.3-1.5Z" transform="translate(0 -4.199)" fill="#c2c2c2"/>
    <path id="Path_21604" data-name="Path 21604" d="M0,180.4H0c6.406,1.5,11.71,5.4,13.412,9.909l-1.7-7.106a2.443,2.443,0,0,0-2.4-1.9Z" transform="translate(0 -4.199)" fill="#c2c2c2"/>
    <path id="Path_21605" data-name="Path 21605" d="M0,180.4H0c6.406,1.5,11.71,5.4,13.412,9.909l-1.2-3.9c-.3-1.2-.7-2.4-2.1-2.9Z" transform="translate(0 -4.199)" fill="#c2c2c2"/>
    <g id="Group_17557" data-name="Group 17557" transform="translate(6.506 178.202)">
      <path id="Path_21606" data-name="Path 21606" d="M64.411,206.409l-3.4-3.4-1.6,3.8-.4-2.5A14.509,14.509,0,0,0,52,196.4l4.5,16.014h5.4Z" transform="translate(-52 -196.4)" fill="#c2c2c2"/>
      <path id="Path_21607" data-name="Path 21607" d="M189.9,293.6l-4.3-4.4-.8,4.4Z" transform="translate(-168.185 -277.59)" fill="#c2c2c2"/>
      <path id="Path_21608" data-name="Path 21608" d="M256.708,274.8h0c.4.4.6.7.5,1.1,0,1.2-1.6,1.8-3,1.8a10.879,10.879,0,0,1-4.8-1l-.7-.3-.7,4.1a16.229,16.229,0,0,0,5.7,1c3.2,0,5.805-.9,7.306-2.5Z" transform="translate(-223.479 -264.991)" fill="#c2c2c2"/>
      <path id="Path_21609" data-name="Path 21609" d="M364,232.711h4.7l1-3h6.406l.6,3h4.8l-1.7-7.306-6.005-5.805.3,1.6s1,4.5,1.2,5.5h-4.2c.4-1,2-5.3,2-5.3s.4-1.1.7-1.8" transform="translate(-324.966 -216.697)" fill="#c2c2c2"/>
    </g>
  </g>
</svg>
